<mxfile host="app.diagrams.net" modified="2024-03-27T09:09:50.023Z" agent="Mozilla/5.0 (Windows NT 10.0; Win64; x64) AppleWebKit/537.36 (KHTML, like Gecko) Chrome/123.0.0.0 Safari/537.36" etag="Ro3oneSSlKiVsAiRXFHm" version="24.1.0" type="device">
  <diagram name="Page-1" id="vZL2R9rKv9laP-wcjCIe">
    <mxGraphModel dx="1535" dy="1724" grid="0" gridSize="10" guides="1" tooltips="1" connect="1" arrows="1" fold="1" page="0" pageScale="1" pageWidth="850" pageHeight="1100" math="0" shadow="0">
      <root>
        <mxCell id="0" />
        <mxCell id="1" parent="0" />
        <mxCell id="avBrp512WOhUkqU3lyuj-1" value="recipe" style="swimlane;childLayout=stackLayout;horizontal=1;startSize=50;horizontalStack=0;rounded=1;fontSize=14;fontStyle=0;strokeWidth=2;resizeParent=0;resizeLast=1;shadow=0;dashed=0;align=center;arcSize=4;whiteSpace=wrap;html=1;" parent="1" vertex="1">
          <mxGeometry x="113" y="119" width="170" height="183" as="geometry" />
        </mxCell>
        <mxCell id="avBrp512WOhUkqU3lyuj-2" value="&lt;u&gt;ID&lt;/u&gt;&lt;div&gt;name&lt;/div&gt;&lt;div&gt;type&lt;/div&gt;&lt;div&gt;difficulty_level&lt;/div&gt;&lt;div&gt;description&lt;/div&gt;&lt;div&gt;preparation_time&lt;/div&gt;&lt;div&gt;cooking_time&lt;/div&gt;&lt;div&gt;number_of_portions&lt;/div&gt;" style="align=left;strokeColor=none;fillColor=none;spacingLeft=4;fontSize=12;verticalAlign=top;resizable=0;rotatable=0;part=1;html=1;" parent="avBrp512WOhUkqU3lyuj-1" vertex="1">
          <mxGeometry y="50" width="170" height="133" as="geometry" />
        </mxCell>
        <mxCell id="avBrp512WOhUkqU3lyuj-3" value="ethnic_cuisine" style="swimlane;childLayout=stackLayout;horizontal=1;startSize=50;horizontalStack=0;rounded=1;fontSize=14;fontStyle=0;strokeWidth=2;resizeParent=0;resizeLast=1;shadow=0;dashed=0;align=center;arcSize=4;whiteSpace=wrap;html=1;" parent="1" vertex="1">
          <mxGeometry x="518" y="129" width="155" height="90" as="geometry" />
        </mxCell>
        <mxCell id="avBrp512WOhUkqU3lyuj-4" value="&lt;u&gt;ID&lt;/u&gt;&lt;div&gt;name&lt;/div&gt;" style="align=left;strokeColor=none;fillColor=none;spacingLeft=4;fontSize=12;verticalAlign=top;resizable=0;rotatable=0;part=1;html=1;" parent="avBrp512WOhUkqU3lyuj-3" vertex="1">
          <mxGeometry y="50" width="155" height="40" as="geometry" />
        </mxCell>
        <mxCell id="avBrp512WOhUkqU3lyuj-11" value="label" style="swimlane;childLayout=stackLayout;horizontal=1;startSize=50;horizontalStack=0;rounded=1;fontSize=14;fontStyle=0;strokeWidth=2;resizeParent=0;resizeLast=1;shadow=0;dashed=0;align=center;arcSize=4;whiteSpace=wrap;html=1;" parent="1" vertex="1">
          <mxGeometry x="518" y="293" width="152" height="91" as="geometry" />
        </mxCell>
        <mxCell id="avBrp512WOhUkqU3lyuj-12" value="&lt;u&gt;ID&lt;/u&gt;&lt;div&gt;name&lt;/div&gt;" style="align=left;strokeColor=none;fillColor=none;spacingLeft=4;fontSize=12;verticalAlign=top;resizable=0;rotatable=0;part=1;html=1;" parent="avBrp512WOhUkqU3lyuj-11" vertex="1">
          <mxGeometry y="50" width="152" height="41" as="geometry" />
        </mxCell>
        <mxCell id="avBrp512WOhUkqU3lyuj-13" value="equipment" style="swimlane;childLayout=stackLayout;horizontal=1;startSize=50;horizontalStack=0;rounded=1;fontSize=14;fontStyle=0;strokeWidth=2;resizeParent=0;resizeLast=1;shadow=0;dashed=0;align=center;arcSize=4;whiteSpace=wrap;html=1;" parent="1" vertex="1">
          <mxGeometry x="518" y="460" width="163" height="105" as="geometry" />
        </mxCell>
        <mxCell id="avBrp512WOhUkqU3lyuj-14" value="&lt;u&gt;ID&lt;/u&gt;&lt;div&gt;name&lt;/div&gt;&lt;div&gt;instructions&lt;/div&gt;" style="align=left;strokeColor=none;fillColor=none;spacingLeft=4;fontSize=12;verticalAlign=top;resizable=0;rotatable=0;part=1;html=1;" parent="avBrp512WOhUkqU3lyuj-13" vertex="1">
          <mxGeometry y="50" width="163" height="55" as="geometry" />
        </mxCell>
        <mxCell id="avBrp512WOhUkqU3lyuj-15" value="meal_category" style="swimlane;childLayout=stackLayout;horizontal=1;startSize=50;horizontalStack=0;rounded=1;fontSize=14;fontStyle=0;strokeWidth=2;resizeParent=0;resizeLast=1;shadow=0;dashed=0;align=center;arcSize=4;whiteSpace=wrap;html=1;" parent="1" vertex="1">
          <mxGeometry x="-194" y="129" width="158" height="91" as="geometry" />
        </mxCell>
        <mxCell id="avBrp512WOhUkqU3lyuj-16" value="&lt;u&gt;ID&lt;/u&gt;&lt;div&gt;name&lt;/div&gt;" style="align=left;strokeColor=none;fillColor=none;spacingLeft=4;fontSize=12;verticalAlign=top;resizable=0;rotatable=0;part=1;html=1;" parent="avBrp512WOhUkqU3lyuj-15" vertex="1">
          <mxGeometry y="50" width="158" height="41" as="geometry" />
        </mxCell>
        <mxCell id="avBrp512WOhUkqU3lyuj-17" value="tips" style="swimlane;childLayout=stackLayout;horizontal=1;startSize=50;horizontalStack=0;rounded=1;fontSize=14;fontStyle=0;strokeWidth=2;resizeParent=0;resizeLast=1;shadow=0;dashed=0;align=center;arcSize=4;whiteSpace=wrap;html=1;" parent="1" vertex="1">
          <mxGeometry x="-193" y="302" width="158" height="93" as="geometry" />
        </mxCell>
        <mxCell id="avBrp512WOhUkqU3lyuj-18" value="&lt;u&gt;ID&lt;/u&gt;&lt;div&gt;information&lt;/div&gt;" style="align=left;strokeColor=none;fillColor=none;spacingLeft=4;fontSize=12;verticalAlign=top;resizable=0;rotatable=0;part=1;html=1;" parent="avBrp512WOhUkqU3lyuj-17" vertex="1">
          <mxGeometry y="50" width="158" height="43" as="geometry" />
        </mxCell>
        <mxCell id="avBrp512WOhUkqU3lyuj-19" value="step" style="swimlane;childLayout=stackLayout;horizontal=1;startSize=50;horizontalStack=0;rounded=1;fontSize=14;fontStyle=0;strokeWidth=2;resizeParent=0;resizeLast=1;shadow=0;dashed=0;align=center;arcSize=4;whiteSpace=wrap;html=1;" parent="1" vertex="1">
          <mxGeometry x="-194" y="483" width="160" height="120" as="geometry" />
        </mxCell>
        <mxCell id="avBrp512WOhUkqU3lyuj-20" value="&lt;u&gt;ID&lt;/u&gt;&lt;div&gt;number&lt;/div&gt;&lt;div&gt;description&lt;/div&gt;" style="align=left;strokeColor=none;fillColor=none;spacingLeft=4;fontSize=12;verticalAlign=top;resizable=0;rotatable=0;part=1;html=1;" parent="avBrp512WOhUkqU3lyuj-19" vertex="1">
          <mxGeometry y="50" width="160" height="70" as="geometry" />
        </mxCell>
        <mxCell id="avBrp512WOhUkqU3lyuj-21" value="ingredient" style="swimlane;childLayout=stackLayout;horizontal=1;startSize=50;horizontalStack=0;rounded=1;fontSize=14;fontStyle=0;strokeWidth=2;resizeParent=0;resizeLast=1;shadow=0;dashed=0;align=center;arcSize=4;whiteSpace=wrap;html=1;" parent="1" vertex="1">
          <mxGeometry x="110.5" y="366" width="160" height="120" as="geometry" />
        </mxCell>
        <mxCell id="avBrp512WOhUkqU3lyuj-22" value="&lt;u&gt;ID&lt;/u&gt;&lt;div&gt;name&lt;/div&gt;" style="align=left;strokeColor=none;fillColor=none;spacingLeft=4;fontSize=12;verticalAlign=top;resizable=0;rotatable=0;part=1;html=1;" parent="avBrp512WOhUkqU3lyuj-21" vertex="1">
          <mxGeometry y="50" width="160" height="70" as="geometry" />
        </mxCell>
        <mxCell id="avBrp512WOhUkqU3lyuj-23" value="unit" style="swimlane;childLayout=stackLayout;horizontal=1;startSize=50;horizontalStack=0;rounded=1;fontSize=14;fontStyle=0;strokeWidth=2;resizeParent=0;resizeLast=1;shadow=0;dashed=0;align=center;arcSize=4;whiteSpace=wrap;html=1;" parent="1" vertex="1">
          <mxGeometry x="100" y="525" width="160" height="120" as="geometry" />
        </mxCell>
        <mxCell id="avBrp512WOhUkqU3lyuj-24" value="&lt;u&gt;ID&lt;/u&gt;&lt;div&gt;name&lt;/div&gt;&lt;div&gt;convert_value&lt;/div&gt;" style="align=left;strokeColor=none;fillColor=none;spacingLeft=4;fontSize=12;verticalAlign=top;resizable=0;rotatable=0;part=1;html=1;" parent="avBrp512WOhUkqU3lyuj-23" vertex="1">
          <mxGeometry y="50" width="160" height="70" as="geometry" />
        </mxCell>
        <mxCell id="avBrp512WOhUkqU3lyuj-25" value="quantity" style="swimlane;childLayout=stackLayout;horizontal=1;startSize=50;horizontalStack=0;rounded=1;fontSize=14;fontStyle=0;strokeWidth=2;resizeParent=0;resizeLast=1;shadow=0;dashed=0;align=center;arcSize=4;whiteSpace=wrap;html=1;" parent="1" vertex="1">
          <mxGeometry x="116" y="696" width="160" height="120" as="geometry" />
        </mxCell>
        <mxCell id="avBrp512WOhUkqU3lyuj-26" value="&lt;u&gt;ID&lt;/u&gt;&lt;div&gt;value&lt;/div&gt;" style="align=left;strokeColor=none;fillColor=none;spacingLeft=4;fontSize=12;verticalAlign=top;resizable=0;rotatable=0;part=1;html=1;" parent="avBrp512WOhUkqU3lyuj-25" vertex="1">
          <mxGeometry y="50" width="160" height="70" as="geometry" />
        </mxCell>
        <mxCell id="avBrp512WOhUkqU3lyuj-27" value="standard_unit" style="swimlane;childLayout=stackLayout;horizontal=1;startSize=50;horizontalStack=0;rounded=1;fontSize=14;fontStyle=0;strokeWidth=2;resizeParent=0;resizeLast=1;shadow=0;dashed=0;align=center;arcSize=4;whiteSpace=wrap;html=1;" parent="1" vertex="1">
          <mxGeometry x="116" y="875" width="158" height="78" as="geometry" />
        </mxCell>
        <mxCell id="avBrp512WOhUkqU3lyuj-28" value="&lt;u&gt;ID&lt;/u&gt;&lt;div&gt;&lt;br&gt;&lt;/div&gt;" style="align=left;strokeColor=none;fillColor=none;spacingLeft=4;fontSize=12;verticalAlign=top;resizable=0;rotatable=0;part=1;html=1;" parent="avBrp512WOhUkqU3lyuj-27" vertex="1">
          <mxGeometry y="50" width="158" height="28" as="geometry" />
        </mxCell>
        <mxCell id="avBrp512WOhUkqU3lyuj-29" value="food_group" style="swimlane;childLayout=stackLayout;horizontal=1;startSize=50;horizontalStack=0;rounded=1;fontSize=14;fontStyle=0;strokeWidth=2;resizeParent=0;resizeLast=1;shadow=0;dashed=0;align=center;arcSize=4;whiteSpace=wrap;html=1;" parent="1" vertex="1">
          <mxGeometry x="116" y="-71" width="160" height="120" as="geometry" />
        </mxCell>
        <mxCell id="avBrp512WOhUkqU3lyuj-30" value="&lt;u&gt;ID&lt;/u&gt;&lt;div&gt;name&lt;/div&gt;&lt;div&gt;description&lt;/div&gt;&lt;div&gt;characterization&lt;/div&gt;" style="align=left;strokeColor=none;fillColor=none;spacingLeft=4;fontSize=12;verticalAlign=top;resizable=0;rotatable=0;part=1;html=1;" parent="avBrp512WOhUkqU3lyuj-29" vertex="1">
          <mxGeometry y="50" width="160" height="70" as="geometry" />
        </mxCell>
        <mxCell id="avBrp512WOhUkqU3lyuj-31" value="thematic_unit" style="swimlane;childLayout=stackLayout;horizontal=1;startSize=50;horizontalStack=0;rounded=1;fontSize=14;fontStyle=0;strokeWidth=2;resizeParent=0;resizeLast=1;shadow=0;dashed=0;align=center;arcSize=4;whiteSpace=wrap;html=1;" parent="1" vertex="1">
          <mxGeometry x="-194" y="663" width="160" height="120" as="geometry" />
        </mxCell>
        <mxCell id="avBrp512WOhUkqU3lyuj-32" value="&lt;u&gt;ID&lt;/u&gt;&lt;div&gt;name&lt;/div&gt;&lt;div&gt;description&lt;/div&gt;" style="align=left;strokeColor=none;fillColor=none;spacingLeft=4;fontSize=12;verticalAlign=top;resizable=0;rotatable=0;part=1;html=1;" parent="avBrp512WOhUkqU3lyuj-31" vertex="1">
          <mxGeometry y="50" width="160" height="70" as="geometry" />
        </mxCell>
        <mxCell id="avBrp512WOhUkqU3lyuj-33" value="cook" style="swimlane;childLayout=stackLayout;horizontal=1;startSize=50;horizontalStack=0;rounded=1;fontSize=14;fontStyle=0;strokeWidth=2;resizeParent=0;resizeLast=1;shadow=0;dashed=0;align=center;arcSize=4;whiteSpace=wrap;html=1;" parent="1" vertex="1">
          <mxGeometry x="125" y="-285" width="167" height="171" as="geometry" />
        </mxCell>
        <mxCell id="avBrp512WOhUkqU3lyuj-34" value="&lt;u&gt;ID&lt;/u&gt;&lt;div&gt;first_name&lt;/div&gt;&lt;div&gt;last_name&lt;/div&gt;&lt;div&gt;phone_number&lt;/div&gt;&lt;div&gt;birth_date&lt;/div&gt;&lt;div&gt;years_working&lt;/div&gt;&lt;div&gt;level&lt;/div&gt;" style="align=left;strokeColor=none;fillColor=none;spacingLeft=4;fontSize=12;verticalAlign=top;resizable=0;rotatable=0;part=1;html=1;" parent="avBrp512WOhUkqU3lyuj-33" vertex="1">
          <mxGeometry y="50" width="167" height="121" as="geometry" />
        </mxCell>
        <mxCell id="avBrp512WOhUkqU3lyuj-35" value="episode" style="swimlane;childLayout=stackLayout;horizontal=1;startSize=50;horizontalStack=0;rounded=1;fontSize=14;fontStyle=0;strokeWidth=2;resizeParent=0;resizeLast=1;shadow=0;dashed=0;align=center;arcSize=4;whiteSpace=wrap;html=1;" parent="1" vertex="1">
          <mxGeometry x="-183" y="-478" width="160" height="95" as="geometry" />
        </mxCell>
        <mxCell id="avBrp512WOhUkqU3lyuj-36" value="&lt;u&gt;ID&lt;/u&gt;&lt;div&gt;date&lt;/div&gt;" style="align=left;strokeColor=none;fillColor=none;spacingLeft=4;fontSize=12;verticalAlign=top;resizable=0;rotatable=0;part=1;html=1;" parent="avBrp512WOhUkqU3lyuj-35" vertex="1">
          <mxGeometry y="50" width="160" height="45" as="geometry" />
        </mxCell>
        <mxCell id="avBrp512WOhUkqU3lyuj-37" value="event" style="swimlane;childLayout=stackLayout;horizontal=1;startSize=50;horizontalStack=0;rounded=1;fontSize=14;fontStyle=0;strokeWidth=2;resizeParent=0;resizeLast=1;shadow=0;dashed=0;align=center;arcSize=4;whiteSpace=wrap;html=1;" parent="1" vertex="1">
          <mxGeometry x="116" y="-483" width="160" height="120" as="geometry" />
        </mxCell>
        <mxCell id="avBrp512WOhUkqU3lyuj-38" value="&lt;u&gt;ID&lt;/u&gt;&lt;div&gt;date&lt;/div&gt;" style="align=left;strokeColor=none;fillColor=none;spacingLeft=4;fontSize=12;verticalAlign=top;resizable=0;rotatable=0;part=1;html=1;" parent="avBrp512WOhUkqU3lyuj-37" vertex="1">
          <mxGeometry y="50" width="160" height="70" as="geometry" />
        </mxCell>
        <mxCell id="avBrp512WOhUkqU3lyuj-39" value="image" style="swimlane;childLayout=stackLayout;horizontal=1;startSize=50;horizontalStack=0;rounded=1;fontSize=14;fontStyle=0;strokeWidth=2;resizeParent=0;resizeLast=1;shadow=0;dashed=0;align=center;arcSize=4;whiteSpace=wrap;html=1;" parent="1" vertex="1">
          <mxGeometry x="518" y="-483" width="160" height="120" as="geometry" />
        </mxCell>
        <mxCell id="avBrp512WOhUkqU3lyuj-40" value="&lt;u&gt;ID&lt;/u&gt;&lt;div&gt;description&lt;/div&gt;" style="align=left;strokeColor=none;fillColor=none;spacingLeft=4;fontSize=12;verticalAlign=top;resizable=0;rotatable=0;part=1;html=1;" parent="avBrp512WOhUkqU3lyuj-39" vertex="1">
          <mxGeometry y="50" width="160" height="70" as="geometry" />
        </mxCell>
        <mxCell id="avBrp512WOhUkqU3lyuj-44" value="nutritional_table" style="swimlane;childLayout=stackLayout;horizontal=1;startSize=50;horizontalStack=0;rounded=1;fontSize=14;fontStyle=0;strokeWidth=2;resizeParent=0;resizeLast=1;shadow=0;dashed=0;align=center;arcSize=4;whiteSpace=wrap;html=1;" parent="1" vertex="1">
          <mxGeometry x="518" y="641" width="160" height="120" as="geometry" />
        </mxCell>
        <mxCell id="avBrp512WOhUkqU3lyuj-45" value="&lt;div&gt;&lt;u&gt;ID&lt;/u&gt;&lt;/div&gt;&lt;div&gt;fats_per_portion&lt;/div&gt;&lt;div&gt;protein_per_&lt;span style=&quot;background-color: initial;&quot;&gt;portion&lt;/span&gt;&lt;/div&gt;&lt;div&gt;&lt;span style=&quot;background-color: initial;&quot;&gt;calories_per_&lt;/span&gt;&lt;span style=&quot;background-color: initial;&quot;&gt;portion&lt;/span&gt;&lt;/div&gt;" style="align=left;strokeColor=none;fillColor=none;spacingLeft=4;fontSize=12;verticalAlign=top;resizable=0;rotatable=0;part=1;html=1;" parent="avBrp512WOhUkqU3lyuj-44" vertex="1">
          <mxGeometry y="50" width="160" height="70" as="geometry" />
        </mxCell>
        <mxCell id="avBrp512WOhUkqU3lyuj-46" value="nutritional_content" style="swimlane;childLayout=stackLayout;horizontal=1;startSize=50;horizontalStack=0;rounded=1;fontSize=14;fontStyle=0;strokeWidth=2;resizeParent=0;resizeLast=1;shadow=0;dashed=0;align=center;arcSize=4;whiteSpace=wrap;html=1;" parent="1" vertex="1">
          <mxGeometry x="518" y="803" width="163" height="124" as="geometry" />
        </mxCell>
        <mxCell id="avBrp512WOhUkqU3lyuj-47" value="&lt;u&gt;ID&lt;/u&gt;&lt;div&gt;fats_per_100&lt;/div&gt;&lt;div&gt;protein_per_100&lt;/div&gt;&lt;div&gt;calories_per_100&lt;/div&gt;" style="align=left;strokeColor=none;fillColor=none;spacingLeft=4;fontSize=12;verticalAlign=top;resizable=0;rotatable=0;part=1;html=1;" parent="avBrp512WOhUkqU3lyuj-46" vertex="1">
          <mxGeometry y="50" width="163" height="74" as="geometry" />
        </mxCell>
        <mxCell id="avBrp512WOhUkqU3lyuj-54" value="" style="edgeStyle=entityRelationEdgeStyle;fontSize=12;html=1;endArrow=ERoneToMany;rounded=0;entryX=1;entryY=0.25;entryDx=0;entryDy=0;exitX=0;exitY=0;exitDx=0;exitDy=0;" parent="1" source="avBrp512WOhUkqU3lyuj-4" target="avBrp512WOhUkqU3lyuj-2" edge="1">
          <mxGeometry width="100" height="100" relative="1" as="geometry">
            <mxPoint x="449" y="179" as="sourcePoint" />
            <mxPoint x="417" y="243" as="targetPoint" />
            <Array as="points">
              <mxPoint x="363" y="228" />
            </Array>
          </mxGeometry>
        </mxCell>
        <mxCell id="avBrp512WOhUkqU3lyuj-59" value="" style="edgeStyle=entityRelationEdgeStyle;fontSize=12;html=1;endArrow=ERoneToMany;rounded=0;entryX=1;entryY=0;entryDx=0;entryDy=0;exitX=-0.008;exitY=0.353;exitDx=0;exitDy=0;exitPerimeter=0;" parent="1" source="avBrp512WOhUkqU3lyuj-2" target="avBrp512WOhUkqU3lyuj-18" edge="1">
          <mxGeometry width="100" height="100" relative="1" as="geometry">
            <mxPoint x="2" y="358" as="sourcePoint" />
            <mxPoint x="102" y="258" as="targetPoint" />
          </mxGeometry>
        </mxCell>
        <mxCell id="avBrp512WOhUkqU3lyuj-60" value="" style="edgeStyle=entityRelationEdgeStyle;fontSize=12;html=1;endArrow=ERoneToMany;rounded=0;entryX=1;entryY=0;entryDx=0;entryDy=0;exitX=-0.008;exitY=0.439;exitDx=0;exitDy=0;exitPerimeter=0;" parent="1" source="avBrp512WOhUkqU3lyuj-2" target="avBrp512WOhUkqU3lyuj-20" edge="1">
          <mxGeometry width="100" height="100" relative="1" as="geometry">
            <mxPoint x="-7" y="472" as="sourcePoint" />
            <mxPoint x="93" y="372" as="targetPoint" />
          </mxGeometry>
        </mxCell>
        <mxCell id="avBrp512WOhUkqU3lyuj-62" value="" style="edgeStyle=entityRelationEdgeStyle;fontSize=12;html=1;endArrow=ERmany;startArrow=ERmany;rounded=0;entryX=-0.004;entryY=0.058;entryDx=0;entryDy=0;entryPerimeter=0;exitX=1;exitY=0;exitDx=0;exitDy=0;" parent="1" source="avBrp512WOhUkqU3lyuj-16" target="avBrp512WOhUkqU3lyuj-2" edge="1">
          <mxGeometry width="100" height="100" relative="1" as="geometry">
            <mxPoint x="-18" y="238" as="sourcePoint" />
            <mxPoint x="82" y="138" as="targetPoint" />
          </mxGeometry>
        </mxCell>
        <mxCell id="avBrp512WOhUkqU3lyuj-63" value="" style="edgeStyle=entityRelationEdgeStyle;fontSize=12;html=1;endArrow=ERmany;startArrow=ERmany;rounded=0;entryX=0;entryY=0;entryDx=0;entryDy=0;exitX=1.004;exitY=0.404;exitDx=0;exitDy=0;exitPerimeter=0;" parent="1" source="avBrp512WOhUkqU3lyuj-2" target="avBrp512WOhUkqU3lyuj-12" edge="1">
          <mxGeometry width="100" height="100" relative="1" as="geometry">
            <mxPoint x="324" y="269" as="sourcePoint" />
            <mxPoint x="362" y="380" as="targetPoint" />
          </mxGeometry>
        </mxCell>
        <mxCell id="avBrp512WOhUkqU3lyuj-64" value="" style="edgeStyle=entityRelationEdgeStyle;fontSize=12;html=1;endArrow=ERmany;startArrow=ERmany;rounded=0;entryX=0;entryY=0;entryDx=0;entryDy=0;exitX=1.029;exitY=0.571;exitDx=0;exitDy=0;exitPerimeter=0;" parent="1" source="avBrp512WOhUkqU3lyuj-2" target="avBrp512WOhUkqU3lyuj-14" edge="1">
          <mxGeometry width="100" height="100" relative="1" as="geometry">
            <mxPoint x="334" y="545" as="sourcePoint" />
            <mxPoint x="434" y="445" as="targetPoint" />
          </mxGeometry>
        </mxCell>
        <mxCell id="avBrp512WOhUkqU3lyuj-74" value="key-ingredient" style="text;html=1;align=center;verticalAlign=middle;resizable=0;points=[];autosize=1;strokeColor=none;fillColor=none;" parent="1" vertex="1">
          <mxGeometry x="85" y="317" width="93" height="26" as="geometry" />
        </mxCell>
        <mxCell id="avBrp512WOhUkqU3lyuj-80" value="" style="edgeStyle=elbowEdgeStyle;fontSize=12;html=1;endArrow=ERoneToMany;rounded=0;entryX=0;entryY=0.75;entryDx=0;entryDy=0;exitX=-0.01;exitY=0.39;exitDx=0;exitDy=0;exitPerimeter=0;elbow=vertical;" parent="1" source="avBrp512WOhUkqU3lyuj-22" target="avBrp512WOhUkqU3lyuj-1" edge="1">
          <mxGeometry width="100" height="100" relative="1" as="geometry">
            <mxPoint x="33" y="448" as="sourcePoint" />
            <mxPoint x="133" y="348" as="targetPoint" />
            <Array as="points">
              <mxPoint x="89" y="345" />
            </Array>
          </mxGeometry>
        </mxCell>
        <mxCell id="avBrp512WOhUkqU3lyuj-81" value="" style="endArrow=none;html=1;rounded=0;exitX=1;exitY=0.75;exitDx=0;exitDy=0;entryX=0;entryY=0.5;entryDx=0;entryDy=0;edgeStyle=orthogonalEdgeStyle;" parent="1" source="avBrp512WOhUkqU3lyuj-2" target="avBrp512WOhUkqU3lyuj-44" edge="1">
          <mxGeometry relative="1" as="geometry">
            <mxPoint x="319" y="510" as="sourcePoint" />
            <mxPoint x="479" y="510" as="targetPoint" />
            <Array as="points">
              <mxPoint x="325" y="269" />
              <mxPoint x="325" y="701" />
            </Array>
          </mxGeometry>
        </mxCell>
        <mxCell id="avBrp512WOhUkqU3lyuj-82" value="" style="edgeStyle=orthogonalEdgeStyle;fontSize=12;html=1;endArrow=ERoneToMany;rounded=0;entryX=1.026;entryY=0.381;entryDx=0;entryDy=0;entryPerimeter=0;exitX=1;exitY=0;exitDx=0;exitDy=0;" parent="1" source="avBrp512WOhUkqU3lyuj-30" target="avBrp512WOhUkqU3lyuj-22" edge="1">
          <mxGeometry width="100" height="100" relative="1" as="geometry">
            <mxPoint x="342" y="144" as="sourcePoint" />
            <mxPoint x="442" y="44" as="targetPoint" />
            <Array as="points">
              <mxPoint x="276" y="-31" />
              <mxPoint x="380" y="-31" />
              <mxPoint x="380" y="443" />
            </Array>
          </mxGeometry>
        </mxCell>
        <mxCell id="avBrp512WOhUkqU3lyuj-83" value="" style="edgeStyle=orthogonalEdgeStyle;fontSize=12;html=1;endArrow=ERoneToMany;rounded=0;entryX=1;entryY=0.25;entryDx=0;entryDy=0;exitX=1.014;exitY=0.86;exitDx=0;exitDy=0;exitPerimeter=0;" parent="1" source="avBrp512WOhUkqU3lyuj-2" target="avBrp512WOhUkqU3lyuj-26" edge="1">
          <mxGeometry width="100" height="100" relative="1" as="geometry">
            <mxPoint x="319" y="857" as="sourcePoint" />
            <mxPoint x="419" y="757" as="targetPoint" />
            <Array as="points">
              <mxPoint x="310" y="283" />
              <mxPoint x="310" y="764" />
            </Array>
          </mxGeometry>
        </mxCell>
        <mxCell id="avBrp512WOhUkqU3lyuj-84" value="" style="edgeStyle=orthogonalEdgeStyle;fontSize=12;html=1;endArrow=ERoneToMany;rounded=0;entryX=0;entryY=0;entryDx=0;entryDy=0;exitX=0;exitY=0.5;exitDx=0;exitDy=0;" parent="1" source="avBrp512WOhUkqU3lyuj-28" target="avBrp512WOhUkqU3lyuj-24" edge="1">
          <mxGeometry width="100" height="100" relative="1" as="geometry">
            <mxPoint x="-50" y="915" as="sourcePoint" />
            <mxPoint x="50" y="815" as="targetPoint" />
            <Array as="points">
              <mxPoint x="45" y="960" />
              <mxPoint x="45" y="575" />
            </Array>
          </mxGeometry>
        </mxCell>
        <mxCell id="avBrp512WOhUkqU3lyuj-85" value="" style="edgeStyle=orthogonalEdgeStyle;fontSize=12;html=1;endArrow=ERoneToMany;rounded=0;entryX=0.5;entryY=0;entryDx=0;entryDy=0;exitX=0.55;exitY=0.986;exitDx=0;exitDy=0;exitPerimeter=0;" parent="1" source="avBrp512WOhUkqU3lyuj-24" target="avBrp512WOhUkqU3lyuj-25" edge="1">
          <mxGeometry width="100" height="100" relative="1" as="geometry">
            <mxPoint x="48" y="762" as="sourcePoint" />
            <mxPoint x="148" y="662" as="targetPoint" />
          </mxGeometry>
        </mxCell>
        <mxCell id="avBrp512WOhUkqU3lyuj-86" value="" style="endArrow=none;html=1;rounded=0;exitX=1;exitY=0.75;exitDx=0;exitDy=0;entryX=-0.008;entryY=0.158;entryDx=0;entryDy=0;entryPerimeter=0;edgeStyle=orthogonalEdgeStyle;" parent="1" source="avBrp512WOhUkqU3lyuj-22" target="avBrp512WOhUkqU3lyuj-47" edge="1">
          <mxGeometry relative="1" as="geometry">
            <mxPoint x="359" y="600" as="sourcePoint" />
            <mxPoint x="519" y="600" as="targetPoint" />
            <Array as="points">
              <mxPoint x="445" y="469" />
              <mxPoint x="445" y="865" />
            </Array>
          </mxGeometry>
        </mxCell>
        <mxCell id="avBrp512WOhUkqU3lyuj-87" value="" style="edgeStyle=orthogonalEdgeStyle;fontSize=12;html=1;endArrow=ERoneToMany;rounded=0;entryX=0.869;entryY=-0.008;entryDx=0;entryDy=0;entryPerimeter=0;exitX=1;exitY=1;exitDx=0;exitDy=0;" parent="1" source="avBrp512WOhUkqU3lyuj-22" target="avBrp512WOhUkqU3lyuj-25" edge="1">
          <mxGeometry width="100" height="100" relative="1" as="geometry">
            <mxPoint x="348" y="778" as="sourcePoint" />
            <mxPoint x="448" y="678" as="targetPoint" />
            <Array as="points">
              <mxPoint x="280" y="486" />
              <mxPoint x="280" y="681" />
              <mxPoint x="255" y="681" />
            </Array>
          </mxGeometry>
        </mxCell>
        <mxCell id="avBrp512WOhUkqU3lyuj-88" value="" style="edgeStyle=entityRelationEdgeStyle;fontSize=12;html=1;endArrow=ERmany;startArrow=ERmany;rounded=0;exitX=1;exitY=0;exitDx=0;exitDy=0;entryX=-0.014;entryY=0.83;entryDx=0;entryDy=0;entryPerimeter=0;" parent="1" source="avBrp512WOhUkqU3lyuj-32" target="avBrp512WOhUkqU3lyuj-2" edge="1">
          <mxGeometry width="100" height="100" relative="1" as="geometry">
            <mxPoint x="-31" y="639" as="sourcePoint" />
            <mxPoint x="69" y="539" as="targetPoint" />
          </mxGeometry>
        </mxCell>
        <mxCell id="avBrp512WOhUkqU3lyuj-89" value="" style="edgeStyle=entityRelationEdgeStyle;fontSize=12;html=1;endArrow=ERoneToMany;rounded=0;entryX=0;entryY=0;entryDx=0;entryDy=0;exitX=1;exitY=0;exitDx=0;exitDy=0;" parent="1" source="avBrp512WOhUkqU3lyuj-36" target="avBrp512WOhUkqU3lyuj-38" edge="1">
          <mxGeometry width="100" height="100" relative="1" as="geometry">
            <mxPoint x="-23" y="-313" as="sourcePoint" />
            <mxPoint x="77" y="-413" as="targetPoint" />
          </mxGeometry>
        </mxCell>
        <mxCell id="avBrp512WOhUkqU3lyuj-91" value="" style="edgeStyle=orthogonalEdgeStyle;fontSize=12;html=1;endArrow=ERoneToMany;rounded=0;entryX=1;entryY=0.5;entryDx=0;entryDy=0;exitX=1.03;exitY=0.397;exitDx=0;exitDy=0;exitPerimeter=0;" parent="1" source="avBrp512WOhUkqU3lyuj-34" target="avBrp512WOhUkqU3lyuj-38" edge="1">
          <mxGeometry width="100" height="100" relative="1" as="geometry">
            <mxPoint x="309" y="-268" as="sourcePoint" />
            <mxPoint x="409" y="-368" as="targetPoint" />
            <Array as="points">
              <mxPoint x="315" y="-187" />
              <mxPoint x="315" y="-398" />
            </Array>
          </mxGeometry>
        </mxCell>
        <mxCell id="avBrp512WOhUkqU3lyuj-92" value="cooks" style="text;html=1;align=center;verticalAlign=middle;resizable=0;points=[];autosize=1;strokeColor=none;fillColor=none;" parent="1" vertex="1">
          <mxGeometry x="309" y="-305" width="49" height="26" as="geometry" />
        </mxCell>
        <mxCell id="avBrp512WOhUkqU3lyuj-93" value="" style="edgeStyle=orthogonalEdgeStyle;fontSize=12;html=1;endArrow=ERoneToMany;rounded=0;entryX=1;entryY=0;entryDx=0;entryDy=0;exitX=0;exitY=0;exitDx=0;exitDy=0;" parent="1" source="avBrp512WOhUkqU3lyuj-3" target="avBrp512WOhUkqU3lyuj-38" edge="1">
          <mxGeometry width="100" height="100" relative="1" as="geometry">
            <mxPoint x="387" y="-152" as="sourcePoint" />
            <mxPoint x="487" y="-252" as="targetPoint" />
            <Array as="points">
              <mxPoint x="417" y="129" />
              <mxPoint x="417" y="-433" />
            </Array>
          </mxGeometry>
        </mxCell>
        <mxCell id="avBrp512WOhUkqU3lyuj-94" value="" style="edgeStyle=orthogonalEdgeStyle;fontSize=12;html=1;endArrow=ERoneToMany;rounded=0;entryX=0;entryY=0.5;entryDx=0;entryDy=0;exitX=0;exitY=0;exitDx=0;exitDy=0;" parent="1" source="avBrp512WOhUkqU3lyuj-1" target="avBrp512WOhUkqU3lyuj-38" edge="1">
          <mxGeometry width="100" height="100" relative="1" as="geometry">
            <mxPoint x="-14" y="-256" as="sourcePoint" />
            <mxPoint x="86" y="-356" as="targetPoint" />
            <Array as="points">
              <mxPoint x="61" y="119" />
              <mxPoint x="61" y="-398" />
            </Array>
          </mxGeometry>
        </mxCell>
        <mxCell id="avBrp512WOhUkqU3lyuj-95" value="judges" style="shape=rhombus;perimeter=rhombusPerimeter;whiteSpace=wrap;html=1;align=center;" parent="1" vertex="1">
          <mxGeometry x="-69" y="-269" width="120" height="60" as="geometry" />
        </mxCell>
        <mxCell id="avBrp512WOhUkqU3lyuj-96" value="" style="edgeStyle=entityRelationEdgeStyle;fontSize=12;html=1;endArrow=ERmany;rounded=0;entryX=-0.026;entryY=0.069;entryDx=0;entryDy=0;entryPerimeter=0;exitX=0.5;exitY=1;exitDx=0;exitDy=0;" parent="1" source="avBrp512WOhUkqU3lyuj-95" target="avBrp512WOhUkqU3lyuj-34" edge="1">
          <mxGeometry width="100" height="100" relative="1" as="geometry">
            <mxPoint x="-76" y="-53" as="sourcePoint" />
            <mxPoint x="24" y="-153" as="targetPoint" />
          </mxGeometry>
        </mxCell>
        <mxCell id="avBrp512WOhUkqU3lyuj-97" value="" style="edgeStyle=entityRelationEdgeStyle;fontSize=12;html=1;endArrow=ERmany;rounded=0;entryX=0;entryY=0.75;entryDx=0;entryDy=0;exitX=0.5;exitY=0;exitDx=0;exitDy=0;" parent="1" source="avBrp512WOhUkqU3lyuj-95" target="avBrp512WOhUkqU3lyuj-38" edge="1">
          <mxGeometry width="100" height="100" relative="1" as="geometry">
            <mxPoint x="-143" y="-206" as="sourcePoint" />
            <mxPoint x="-43" y="-306" as="targetPoint" />
          </mxGeometry>
        </mxCell>
        <mxCell id="avBrp512WOhUkqU3lyuj-98" value="" style="endArrow=none;html=1;rounded=0;dashed=1;dashPattern=1 2;entryX=0;entryY=0.5;entryDx=0;entryDy=0;" parent="1" target="avBrp512WOhUkqU3lyuj-95" edge="1">
          <mxGeometry relative="1" as="geometry">
            <mxPoint x="-152" y="-237" as="sourcePoint" />
            <mxPoint x="-50" y="-132" as="targetPoint" />
          </mxGeometry>
        </mxCell>
        <mxCell id="avBrp512WOhUkqU3lyuj-99" value="score" style="resizable=0;html=1;whiteSpace=wrap;align=right;verticalAlign=bottom;" parent="avBrp512WOhUkqU3lyuj-98" connectable="0" vertex="1">
          <mxGeometry x="1" relative="1" as="geometry">
            <mxPoint x="-54" as="offset" />
          </mxGeometry>
        </mxCell>
        <mxCell id="avBrp512WOhUkqU3lyuj-100" value="" style="edgeStyle=orthogonalEdgeStyle;fontSize=12;html=1;endArrow=ERoneToMany;rounded=0;entryX=0;entryY=0;entryDx=0;entryDy=0;exitX=0.75;exitY=0;exitDx=0;exitDy=0;" parent="1" source="avBrp512WOhUkqU3lyuj-37" target="avBrp512WOhUkqU3lyuj-39" edge="1">
          <mxGeometry width="100" height="100" relative="1" as="geometry">
            <mxPoint x="482" y="-162" as="sourcePoint" />
            <mxPoint x="582" y="-262" as="targetPoint" />
            <Array as="points">
              <mxPoint x="236" y="-537" />
              <mxPoint x="518" y="-537" />
            </Array>
          </mxGeometry>
        </mxCell>
        <mxCell id="avBrp512WOhUkqU3lyuj-101" value="" style="edgeStyle=entityRelationEdgeStyle;fontSize=12;html=1;endArrow=ERoneToMany;rounded=0;entryX=0;entryY=0.15;entryDx=0;entryDy=0;entryPerimeter=0;exitX=1.04;exitY=0.631;exitDx=0;exitDy=0;exitPerimeter=0;" parent="1" source="avBrp512WOhUkqU3lyuj-34" target="avBrp512WOhUkqU3lyuj-39" edge="1">
          <mxGeometry width="100" height="100" relative="1" as="geometry">
            <mxPoint x="492" y="-152" as="sourcePoint" />
            <mxPoint x="635" y="-303" as="targetPoint" />
          </mxGeometry>
        </mxCell>
        <mxCell id="avBrp512WOhUkqU3lyuj-102" value="" style="edgeStyle=entityRelationEdgeStyle;fontSize=12;html=1;endArrow=ERoneToMany;rounded=0;entryX=0;entryY=0.25;entryDx=0;entryDy=0;exitX=1.037;exitY=0.113;exitDx=0;exitDy=0;exitPerimeter=0;" parent="1" source="avBrp512WOhUkqU3lyuj-2" target="avBrp512WOhUkqU3lyuj-39" edge="1">
          <mxGeometry width="100" height="100" relative="1" as="geometry">
            <mxPoint x="502" y="-142" as="sourcePoint" />
            <mxPoint x="602" y="-242" as="targetPoint" />
          </mxGeometry>
        </mxCell>
        <mxCell id="avBrp512WOhUkqU3lyuj-103" value="" style="edgeStyle=orthogonalEdgeStyle;fontSize=12;html=1;endArrow=ERoneToMany;rounded=0;entryX=-0.037;entryY=0.417;entryDx=0;entryDy=0;entryPerimeter=0;exitX=0;exitY=0.5;exitDx=0;exitDy=0;" parent="1" source="avBrp512WOhUkqU3lyuj-14" target="avBrp512WOhUkqU3lyuj-39" edge="1">
          <mxGeometry width="100" height="100" relative="1" as="geometry">
            <mxPoint x="512" y="-132" as="sourcePoint" />
            <mxPoint x="612" y="-232" as="targetPoint" />
            <Array as="points">
              <mxPoint x="489" y="545" />
              <mxPoint x="489" y="-433" />
            </Array>
          </mxGeometry>
        </mxCell>
        <mxCell id="avBrp512WOhUkqU3lyuj-104" value="" style="edgeStyle=entityRelationEdgeStyle;fontSize=12;html=1;endArrow=ERoneToMany;rounded=0;entryX=0;entryY=0.5;entryDx=0;entryDy=0;exitX=1;exitY=0;exitDx=0;exitDy=0;" parent="1" source="avBrp512WOhUkqU3lyuj-22" target="avBrp512WOhUkqU3lyuj-39" edge="1">
          <mxGeometry width="100" height="100" relative="1" as="geometry">
            <mxPoint x="522" y="-122" as="sourcePoint" />
            <mxPoint x="622" y="-222" as="targetPoint" />
          </mxGeometry>
        </mxCell>
      </root>
    </mxGraphModel>
  </diagram>
</mxfile>
